# xmcd
#
# Track frame offsets: 
#        180
#        12924
#        26285
#        39195
#        51358
#        64152
#        77217
#        90913
#        104600
#        118001
#        132377
#        146361
#        158910
#        172764
#        187443
#        199392
#        212719
#        224174
#        236982
#        249108
#        261546
#        274111
#        286804
#        302003
#
# Disc length: 4206 seconds
#
# Revision: 4
# Processed by: cddbd v1.5.2PL0 Copyright (c) Steve Scherf et al.
# Submitted via: ExactAudioCopy v0.99pb4
#
DISCID=67106c18
DTITLE=Sonny Boy Williamson - Volume 2  1940-1942
DYEAR=1993
DGENRE=Blues
TTITLE0=I Been Dealing With The Devil
TTITLE1=War Time Blues
TTITLE2=Decoration Day Blues n°2
TTITLE3=New Early In The Morning
TTITLE4=Welfare Store Blues
TTITLE5=Jivin' The Blues
TTITLE6=Western Union Man
TTITLE7=Springtime Blues
TTITLE8=Shotgun Blues
TTITLE9=My Baby Made A Change
TTITLE10=Drink On Little Girl
TTITLE11=I'm Gonna Catch You Soon
TTITLE12=Million Years Blues
TTITLE13=Sloppy Drunk Blues
TTITLE14=She Was A Dreamer
TTITLE15=You Got To Step Back
TTITLE16=Black Panther Blues
TTITLE17=Broken Heart Blues
TTITLE18=She Don't Love Me That Way
TTITLE19=My Black Name Blues
TTITLE20=I Have Got To Go
TTITLE21=Come On Baby And Take A Walk
TTITLE22=Love Me Baby
TTITLE23=Blues That Made Me Drunk
EXTD=YEAR: 1993
EXTT0=
EXTT1=
EXTT2=
EXTT3=
EXTT4=
EXTT5=
EXTT6=
EXTT7=
EXTT8=
EXTT9=
EXTT10=
EXTT11=
EXTT12=
EXTT13=
EXTT14=
EXTT15=
EXTT16=
EXTT17=
EXTT18=
EXTT19=
EXTT20=
EXTT21=
EXTT22=
EXTT23=
PLAYORDER=
